<?xml version="1.0" encoding="UTF-8"?>
<svg version="1.1" xmlns="http://www.w3.org/2000/svg" width="177" height="100">
<path d="M0 0 C58.41 0 116.82 0 177 0 C177 33 177 66 177 100 C118.59 100 60.18 100 0 100 C0 67 0 34 0 0 Z " fill="#010000" transform="translate(0,0)"/>
<path d="M0 0 C0.99 -0.03287109 1.98 -0.06574219 3 -0.09960938 C11.20195956 -0.1599179 11.20195956 -0.1599179 14.7734375 2.6015625 C18.51005649 6.88040381 20.1022119 11.19437024 22.25 16.4375 C22.25 11.4875 22.25 6.5375 22.25 1.4375 C23.57 1.7675 24.89 2.0975 26.25 2.4375 C26.25 9.3675 26.25 16.2975 26.25 23.4375 C26.91 23.7675 27.57 24.0975 28.25 24.4375 C27.92 16.5175 27.59 8.5975 27.25 0.4375 C39.25 0.4375 39.25 0.4375 44.25 3.4375 C45.5625 5.625 45.5625 5.625 46.25 7.4375 C46.78625 6.468125 47.3225 5.49875 47.875 4.5 C50.25 1.4375 50.25 1.4375 53.3125 0.4375 C56.8211404 0.4375 58.20919236 1.56719141 60.84765625 3.7734375 C63.63731879 7.08373343 64.11598543 11.20994946 64.25 15.4375 C62.99622669 20.31984078 61.47883523 23.61827651 57.25 26.4375 C53.8125 26.4375 53.8125 26.4375 50.25 25.4375 C47.12037711 21.82639667 46.25 20.26153959 46.25 15.4375 C45.59 15.4375 44.93 15.4375 44.25 15.4375 C44.20875 16.159375 44.1675 16.88125 44.125 17.625 C42.88006205 21.62658626 40.61839283 23.05981094 37.25 25.4375 C34.28108774 26.41282448 31.42822668 26.65878458 28.3125 26.75 C27.06146484 26.80607422 27.06146484 26.80607422 25.78515625 26.86328125 C22.27766629 26.27419588 20.7634839 24.9304489 18.25 22.4375 C15.93354032 18.55830938 14.1675365 14.54013622 12.25 10.4375 C12.25 15.7175 12.25 20.9975 12.25 26.4375 C10.93 26.1075 9.61 25.7775 8.25 25.4375 C8.58 25.1075 8.91 24.7775 9.25 24.4375 C9.29794959 22.81320759 9.28681774 21.18708286 9.25 19.5625 C9.18957636 13.79959525 9.62983411 8.16296013 10.25 2.4375 C8.6 2.4375 6.95 2.4375 5.25 2.4375 C5.3221875 3.24832031 5.394375 4.05914062 5.46875 4.89453125 C6.07252141 12.09785957 6.38035532 19.21002181 6.25 26.4375 C3.61 26.4375 0.97 26.4375 -1.75 26.4375 C-1.42 25.7775 -1.09 25.1175 -0.75 24.4375 C-0.70357521 22.79232156 -0.71222898 21.14539986 -0.75 19.5 C-0.81075543 13.75861166 -0.36785278 8.14160514 0.25 2.4375 C-2.08075929 3.39615509 -2.08075929 3.39615509 -3.75 6.4375 C-4.08 5.1175 -4.41 3.7975 -4.75 2.4375 C-6.07 2.4375 -7.39 2.4375 -8.75 2.4375 C-8.56584568 5.37841587 -8.56584568 5.37841587 -7.75 8.4375 C-5.81669397 9.52916275 -5.81669397 9.52916275 -3.75 10.4375 C-1.72024491 14.09105917 -1.22178491 17.29981515 -1.75 21.4375 C-3.375 23.8125 -3.375 23.8125 -5.75 25.4375 C-8.8125 25.9375 -8.8125 25.9375 -11.75 25.4375 C-13.6875 23.6875 -13.6875 23.6875 -14.75 21.4375 C-14.4375 19.1875 -14.4375 19.1875 -13.75 17.4375 C-12.43 17.1075 -11.11 16.7775 -9.75 16.4375 C-10.08 18.7475 -10.41 21.0575 -10.75 23.4375 C-9.43 23.4375 -8.11 23.4375 -6.75 23.4375 C-6.66773332 20.39363276 -6.77391783 18.36574652 -7.75 15.4375 C-8.74 15.4375 -9.73 15.4375 -10.75 15.4375 C-13.00491788 10.92766424 -13.07431261 7.38326735 -12.75 2.4375 C-9.33775801 -0.97474199 -4.62867107 0.02670387 0 0 Z " fill="#EAE300" transform="translate(98.75,33.5625)"/>
<path d="M0 0 C1.57394531 -0.00386719 1.57394531 -0.00386719 3.1796875 -0.0078125 C10.8020074 0.08990955 10.8020074 0.08990955 13.20068359 1.80664062 C14.375 3.5 14.375 3.5 14.3125 7.0625 C13.375 10.5 13.375 10.5 11.3125 11.9375 C10.673125 12.123125 10.03375 12.30875 9.375 12.5 C9.375 13.16 9.375 13.82 9.375 14.5 C10.365 14.83 11.355 15.16 12.375 15.5 C14.36896257 18.16083969 16.375 21.11242325 16.375 24.5 C17.035 24.5 17.695 24.5 18.375 24.5 C18.26671875 23.53513672 18.26671875 23.53513672 18.15625 22.55078125 C17.38841105 15.07501595 17.375 8.11333261 17.375 0.5 C28.595 0.5 39.815 0.5 51.375 0.5 C50.715 0.83 50.055 1.16 49.375 1.5 C49.375 9.42 49.375 17.34 49.375 25.5 C47.065 25.5 44.755 25.5 42.375 25.5 C42.705 22.2 43.035 18.9 43.375 15.5 C41.065 15.5 38.755 15.5 36.375 15.5 C36.32601562 16.13808594 36.27703125 16.77617188 36.2265625 17.43359375 C36.15179688 18.25988281 36.07703125 19.08617188 36 19.9375 C35.93039063 20.76121094 35.86078125 21.58492187 35.7890625 22.43359375 C35.65242188 23.11550781 35.51578125 23.79742187 35.375 24.5 C34.385 24.995 34.385 24.995 33.375 25.5 C33.11057096 17.90501039 33.76618425 10.92640842 35.375 3.5 C34.385 3.5 33.395 3.5 32.375 3.5 C32.045 4.16 31.715 4.82 31.375 5.5 C30.715 4.51 30.055 3.52 29.375 2.5 C26.81217258 1.77034634 26.81217258 1.77034634 24.375 1.5 C24.375 4.8 24.375 8.1 24.375 11.5 C26.355 11.17 28.335 10.84 30.375 10.5 C30.045 11.49 29.715 12.48 29.375 13.5 C26.9 13.005 26.9 13.005 24.375 12.5 C24.375 16.46 24.375 20.42 24.375 24.5 C28.45464281 23.19844994 28.45464281 23.19844994 32.375 21.5 C32.375 22.82 32.375 24.14 32.375 25.5 C29.85458689 25.69667089 27.33411728 25.88254317 24.8125 26.0625 C24.10802734 26.11857422 23.40355469 26.17464844 22.67773438 26.23242188 C18.06061569 26.55157754 13.9341248 26.30878035 9.375 25.5 C9.25125 24.571875 9.1275 23.64375 9 22.6875 C8.55966918 19.36074765 8.55966918 19.36074765 6.375 16.5 C5.385 16.17 4.395 15.84 3.375 15.5 C3.705 18.8 4.035 22.1 4.375 25.5 C2.065 25.5 -0.245 25.5 -2.625 25.5 C-2.955 19.23 -3.285 12.96 -3.625 6.5 C-4.285 6.5 -4.945 6.5 -5.625 6.5 C-5.955 5.51 -6.285 4.52 -6.625 3.5 C-7.615 3.17 -8.605 2.84 -9.625 2.5 C-10.61100987 6.60837446 -10.75889122 10.46861834 -10.75 14.6875 C-10.75257812 15.91855469 -10.75515625 17.14960937 -10.7578125 18.41796875 C-10.83888949 21.41246397 -10.83888949 21.41246397 -9.625 23.5 C-8.635 23.83 -7.645 24.16 -6.625 24.5 C-6.295 22.52 -5.965 20.54 -5.625 18.5 C-4.965 18.5 -4.305 18.5 -3.625 18.5 C-4.5 23.25 -4.5 23.25 -5.625 25.5 C-13.01893939 25.98484848 -13.01893939 25.98484848 -15.5 24 C-18.15162567 18.10749851 -19.10645193 13.7007935 -17.62109375 7.45703125 C-13.5529343 -0.53570555 -8.07641438 -0.21990237 0 0 Z " fill="#EEE600" transform="translate(34.625,33.5)"/>
<path d="M0 0 C12.41076487 -0.40914609 12.41076487 -0.40914609 17 3 C18.3125 5.1875 18.3125 5.1875 19 7 C19.53625 6.030625 20.0725 5.06125 20.625 4.0625 C23 1 23 1 26.0625 0 C29.5711404 0 30.95919236 1.12969141 33.59765625 3.3359375 C36.38731879 6.64623343 36.86598543 10.77244946 37 15 C35.74622669 19.88234078 34.22883523 23.18077651 30 26 C26.5625 26 26.5625 26 23 25 C19.87037711 21.38889667 19 19.82403959 19 15 C18.34 15 17.68 15 17 15 C16.95875 15.721875 16.9175 16.44375 16.875 17.1875 C15.57926503 21.35236242 13.61771805 22.58818797 10 25 C7.80078125 24.6328125 7.80078125 24.6328125 6 24 C5.97097571 20.72918529 5.95319316 17.4584037 5.9375 14.1875 C5.92912109 13.25873047 5.92074219 12.32996094 5.91210938 11.37304688 C5.90888672 10.48037109 5.90566406 9.58769531 5.90234375 8.66796875 C5.89710693 7.84578857 5.89187012 7.0236084 5.88647461 6.17651367 C6 4 6 4 7 1 C5.35 1 3.7 1 2 1 C2 4.96 2 8.92 2 13 C1.67 13 1.34 13 1 13 C0.67 8.71 0.34 4.42 0 0 Z " fill="#ECE500" transform="translate(126,34)"/>
<path d="M0 0 C1.57394531 -0.00386719 1.57394531 -0.00386719 3.1796875 -0.0078125 C10.8020074 0.08990955 10.8020074 0.08990955 13.20068359 1.80664062 C14.375 3.5 14.375 3.5 14.3125 7.0625 C13.375 10.5 13.375 10.5 11.375 11.8125 C10.385 12.1528125 10.385 12.1528125 9.375 12.5 C9.045 13.16 8.715 13.82 8.375 14.5 C7.385 14.17 6.395 13.84 5.375 13.5 C5.87 12.79875 6.365 12.0975 6.875 11.375 C8.5686681 8.12880281 8.62662315 6.10659844 8.375 2.5 C7.055 2.5 5.735 2.5 4.375 2.5 C3.715 6.46 3.055 10.42 2.375 14.5 C3.035 14.83 3.695 15.16 4.375 15.5 C4.375 18.8 4.375 22.1 4.375 25.5 C2.065 25.5 -0.245 25.5 -2.625 25.5 C-2.955 19.23 -3.285 12.96 -3.625 6.5 C-4.285 6.5 -4.945 6.5 -5.625 6.5 C-5.955 5.51 -6.285 4.52 -6.625 3.5 C-7.615 3.17 -8.605 2.84 -9.625 2.5 C-10.61100987 6.60837446 -10.75889122 10.46861834 -10.75 14.6875 C-10.75257812 15.91855469 -10.75515625 17.14960937 -10.7578125 18.41796875 C-10.83888949 21.41246397 -10.83888949 21.41246397 -9.625 23.5 C-8.635 23.83 -7.645 24.16 -6.625 24.5 C-6.295 22.52 -5.965 20.54 -5.625 18.5 C-4.965 18.5 -4.305 18.5 -3.625 18.5 C-4.5 23.25 -4.5 23.25 -5.625 25.5 C-13.01893939 25.98484848 -13.01893939 25.98484848 -15.5 24 C-18.15162567 18.10749851 -19.10645193 13.7007935 -17.62109375 7.45703125 C-13.5529343 -0.53570555 -8.07641438 -0.21990237 0 0 Z " fill="#F2EB00" transform="translate(34.625,33.5)"/>
<path d="M0 0 C12.24185013 -0.40357748 12.24185013 -0.40357748 17 3 C18.73956658 4.73956658 18.37190386 7.1936622 18.5625 9.5625 C18.68818359 11.08037109 18.68818359 11.08037109 18.81640625 12.62890625 C18.87699219 13.41136719 18.93757813 14.19382812 19 15 C18.34 15 17.68 15 17 15 C16.95875 15.721875 16.9175 16.44375 16.875 17.1875 C15.57926503 21.35236242 13.61771805 22.58818797 10 25 C7.80078125 24.6328125 7.80078125 24.6328125 6 24 C5.97097571 20.72918529 5.95319316 17.4584037 5.9375 14.1875 C5.92912109 13.25873047 5.92074219 12.32996094 5.91210938 11.37304688 C5.90888672 10.48037109 5.90566406 9.58769531 5.90234375 8.66796875 C5.89710693 7.84578857 5.89187012 7.0236084 5.88647461 6.17651367 C6 4 6 4 7 1 C5.35 1 3.7 1 2 1 C2 4.96 2 8.92 2 13 C1.67 13 1.34 13 1 13 C0.67 8.71 0.34 4.42 0 0 Z " fill="#D0C900" transform="translate(126,34)"/>
<path d="M0 0 C5 0 5 0 8 2 C10.67145537 1.19838209 10.67145537 1.19838209 13 0 C12.690625 0.639375 12.38125 1.27875 12.0625 1.9375 C9.48902959 9.35515001 9.90178152 17.24073994 10 25 C5.38 25 0.76 25 -4 25 C-4 24.67 -4 24.34 -4 24 C-0.04 24 3.92 24 8 24 C7.67 23.01 7.34 22.02 7 21 C6.34 21.66 5.68 22.32 5 23 C3.35 23 1.7 23 0 23 C0 19.04 0 15.08 0 11 C1.65 11 3.3 11 5 11 C5 10.67 5 10.34 5 10 C3.35 10 1.7 10 0 10 C0 6.7 0 3.4 0 0 Z " fill="#222100" transform="translate(59,35)"/>
<path d="M0 0 C0.33 0 0.66 0 1 0 C1 7.92 1 15.84 1 24 C3.31 24 5.62 24 8 24 C8 24.33 8 24.66 8 25 C5.03 25 2.06 25 -1 25 C-0.67 22.36 -0.34 19.72 0 17 C-0.66 17 -1.32 17 -2 17 C-2.33 18.98 -2.66 20.96 -3 23 C-4.9375 22.625 -4.9375 22.625 -7 22 C-8.46343456 19.07313088 -8.1704426 16.44546387 -8.1875 13.1875 C-8.20167969 11.96417969 -8.21585938 10.74085937 -8.23046875 9.48046875 C-8.01147479 6.17328877 -7.42682853 3.9608102 -6 1 C-4.68 1.33 -3.36 1.66 -2 2 C-2 2.99 -2 3.98 -2 5 C-1.34 5 -0.68 5 0 5 C0 3.35 0 1.7 0 0 Z " fill="#131300" transform="translate(31,35)"/>
<path d="M0 0 C1.98 0 3.96 0 6 0 C6 7.92 6 15.84 6 24 C3.69 24 1.38 24 -1 24 C-0.67 20.7 -0.34 17.4 0 14 C-2.31 14 -4.62 14 -7 14 C-7.04898438 14.63808594 -7.09796875 15.27617188 -7.1484375 15.93359375 C-7.22320312 16.75988281 -7.29796875 17.58617188 -7.375 18.4375 C-7.47941406 19.67306641 -7.47941406 19.67306641 -7.5859375 20.93359375 C-7.72257812 21.61550781 -7.85921875 22.29742187 -8 23 C-8.66 23.33 -9.32 23.66 -10 24 C-10 20.37 -10 16.74 -10 13 C-6.30581799 11.768606 -3.7943739 12.35567236 0 13 C0 8.71 0 4.42 0 0 Z " fill="#FCF401" transform="translate(78,35)"/>
<path d="M0 0 C1.65 0.33 3.3 0.66 5 1 C4.85892253 2.45880109 4.71197585 3.91703551 4.5625 5.375 C4.48128906 6.18710937 4.40007813 6.99921875 4.31640625 7.8359375 C4 10 4 10 3 12 C3.721875 12.144375 4.44375 12.28875 5.1875 12.4375 C9.38099568 14.76721982 11.27155818 18.58835802 13 23 C12.67 23.66 12.34 24.32 12 25 C9.69 24.67 7.38 24.34 5 24 C4.9175 23.0925 4.835 22.185 4.75 21.25 C3.8994601 17.56432708 2.88206042 16.35804943 0 14 C-0.66 13.67 -1.32 13.34 -2 13 C-2.19294408 8.17639811 -1.75747614 4.50353262 0 0 Z " fill="#E6DF00" transform="translate(39,35)"/>
<path d="M0 0 C2.31 0 4.62 0 7 0 C7 8.25 7 16.5 7 25 C4.36 25 1.72 25 -1 25 C-0.67 24.34 -0.34 23.68 0 23 C0.08449628 21.2595583 0.10723024 19.51590278 0.09765625 17.7734375 C0.09443359 16.7421875 0.09121094 15.7109375 0.08789062 14.6484375 C0.07951172 13.56820312 0.07113281 12.48796875 0.0625 11.375 C0.05798828 10.28703125 0.05347656 9.1990625 0.04882812 8.078125 C0.03701776 5.38536211 0.02054778 2.69270812 0 0 Z " fill="#F2EA00" transform="translate(98,35)"/>
<path d="M0 0 C3.875 1.875 3.875 1.875 5 3 C5.45084429 9.6473321 5.28288174 15.72207522 3 22 C1.68 21.67 0.36 21.34 -1 21 C-1.85976146 17.26519624 -2.1632868 13.76802846 -2.1875 9.9375 C-2.20167969 8.91527344 -2.21585938 7.89304687 -2.23046875 6.83984375 C-2.00158808 4.01956841 -1.45275779 2.3944664 0 0 Z " fill="#131200" transform="translate(152,36)"/>
<path d="M0 0 C1.65 0 3.3 0 5 0 C6.90830028 1.90830028 6.21815347 5.14773889 6.25 7.6875 C6.27578125 8.90824219 6.3015625 10.12898438 6.328125 11.38671875 C5.97639966 15.2598847 4.94588877 17.66638528 3 21 C2.01 21 1.02 21 0 21 C0 14.07 0 7.14 0 0 Z " fill="#040400" transform="translate(133,36)"/>
<path d="M0 0 C1.65 0 3.3 0 5 0 C4.67 7.59 4.34 15.18 4 23 C4.66 23.33 5.32 23.66 6 24 C3.69 24 1.38 24 -1 24 C-1.12867289 15.93649887 -0.79681084 8.02502344 0 0 Z " fill="#FDF501" transform="translate(128,35)"/>
<path d="M0 0 C5 0 5 0 8 2 C10.67145537 1.19838209 10.67145537 1.19838209 13 0 C12.690625 0.66 12.38125 1.32 12.0625 2 C11.14313625 4.5958506 10.76700309 6.55084149 10.5 9.25 C10.335 10.4875 10.17 11.725 10 13 C9.01 13.495 9.01 13.495 8 14 C7.01 13.34 6.02 12.68 5 12 C5 11.34 5 10.68 5 10 C3.35 10 1.7 10 0 10 C0 6.7 0 3.4 0 0 Z " fill="#100F00" transform="translate(59,35)"/>
<path d="M0 0 C0.99 0.33 1.98 0.66 3 1 C2.979375 2.216875 2.95875 3.43375 2.9375 4.6875 C2.93175884 7.91977322 3.21233685 10.84934741 4 14 C4.99 14 5.98 14 7 14 C9.1519437 17.22791555 9.20086443 18.28400809 9 22 C7.35 22.33 5.7 22.66 4 23 C3.375 20.6875 3.375 20.6875 3 18 C3.66 17.01 4.32 16.02 5 15 C3.02 15.99 3.02 15.99 1 17 C1.33 18.98 1.66 20.96 2 23 C1.01 23 0.02 23 -1 23 C-1.02706445 20.10410348 -1.04687029 17.20846205 -1.0625 14.3125 C-1.07087891 13.49587891 -1.07925781 12.67925781 -1.08789062 11.83789062 C-1.10442051 7.75500916 -1.03035098 3.98348293 0 0 Z " fill="#0C0B00" transform="translate(84,35)"/>
<path d="M0 0 C1.11375 0.2475 1.11375 0.2475 2.25 0.5 C5.19006578 1.11925696 5.19006578 1.11925696 9 1 C9 8.26 9 15.52 9 23 C7.30942525 19.61885051 6.54184533 17.3700175 5.875 13.75 C5.70742187 12.85796875 5.53984375 11.9659375 5.3671875 11.046875 C5.18542969 10.03367187 5.18542969 10.03367187 5 9 C4.071875 8.8453125 4.071875 8.8453125 3.125 8.6875 C1 8 1 8 -1 5 C-0.625 2.3125 -0.625 2.3125 0 0 Z " fill="#1F1E00" transform="translate(90,35)"/>
<path d="M0 0 C1.66611905 -0.042721 3.33382885 -0.04063832 5 0 C6 1 6 1 6.11352539 3.22485352 C6.10828857 4.18319092 6.10305176 5.14152832 6.09765625 6.12890625 C6.09282227 7.68061523 6.09282227 7.68061523 6.08789062 9.26367188 C6.07951172 10.35228516 6.07113281 11.44089844 6.0625 12.5625 C6.05798828 13.65498047 6.05347656 14.74746094 6.04882812 15.87304688 C6.03699826 18.58208495 6.02051543 21.29101599 6 24 C5.01 23.67 4.02 23.34 3 23 C3.02356567 22.06148193 3.02356567 22.06148193 3.04760742 21.10400391 C3.10984675 18.27776069 3.14895462 15.45166139 3.1875 12.625 C3.21263672 11.64015625 3.23777344 10.6553125 3.26367188 9.640625 C3.27817383 8.22910156 3.27817383 8.22910156 3.29296875 6.7890625 C3.3086792 5.91975098 3.32438965 5.05043945 3.34057617 4.15478516 C3.22818604 3.44370605 3.1157959 2.73262695 3 2 C2.01 1.34 1.02 0.68 0 0 Z " fill="#1C1B00" transform="translate(121,34)"/>
<path d="M0 0 C0 4.29 0 8.58 0 13 C-1.98 13 -3.96 13 -6 13 C-6.46666667 4.91111111 -6.46666667 4.91111111 -4.6875 1.4375 C-3 0 -3 0 0 0 Z " fill="#0C0C00" transform="translate(78,35)"/>
<path d="M0 0 C7.59 0 15.18 0 23 0 C23 0.33 23 0.66 23 1 C22.22914062 1.03738281 21.45828125 1.07476562 20.6640625 1.11328125 C19.15972656 1.21189453 19.15972656 1.21189453 17.625 1.3125 C16.12839844 1.39951172 16.12839844 1.39951172 14.6015625 1.48828125 C13.74304688 1.65714844 12.88453125 1.82601562 12 2 C9.97649676 5.03525486 9.67875982 6.19426202 9.375 9.6875 C9.30023438 10.49574219 9.22546875 11.30398437 9.1484375 12.13671875 C9.09945312 12.75160156 9.05046875 13.36648437 9 14 C8.01 14 7.02 14 6 14 C5.85714286 5.42857143 5.85714286 5.42857143 7 2 C3.88214887 2.64644661 3.88214887 2.64644661 3 5 C2.01 3.35 1.02 1.7 0 0 Z " fill="#D1CA00" transform="translate(63,34)"/>
<path d="M0 0 C0.99 0.33 1.98 0.66 3 1 C3.63019694 11.15317287 3.63019694 11.15317287 1 14.6875 C0.34 15.120625 -0.32 15.55375 -1 16 C-2.09506492 12.71480525 -2.09960608 10.26336585 -2.0625 6.8125 C-2.05347656 5.72582031 -2.04445313 4.63914062 -2.03515625 3.51953125 C-2.02355469 2.68808594 -2.01195313 1.85664062 -2 1 C-1.34 0.67 -0.68 0.34 0 0 Z " fill="#101000" transform="translate(106,35)"/>
<path d="M0 0 C1.67542976 0.28604898 3.34385343 0.61781233 5 1 C4.88590407 2.45922693 4.75834456 3.91740598 4.625 5.375 C4.55539063 6.18710937 4.48578125 6.99921875 4.4140625 7.8359375 C4 10 4 10 2 12 C1.01 12 0.02 12 -1 12 C-1.02687279 10.18757948 -1.04633715 8.37504767 -1.0625 6.5625 C-1.07410156 5.55316406 -1.08570313 4.54382812 -1.09765625 3.50390625 C-1 1 -1 1 0 0 Z " fill="#100F00" transform="translate(39,35)"/>
<path d="M0 0 C4.875 0.875 4.875 0.875 6 2 C5.8125 5.4375 5.8125 5.4375 5 9 C3 10.3125 3 10.3125 1 11 C0.67 11.66 0.34 12.32 0 13 C-0.99 12.67 -1.98 12.34 -3 12 C-2.2575 10.9790625 -2.2575 10.9790625 -1.5 9.9375 C0.30365111 6.40534991 0.23021353 3.91363009 0 0 Z " fill="#F4ED01" transform="translate(43,35)"/>
<path d="M0 0 C0.91644287 0.00523682 1.83288574 0.01047363 2.77709961 0.01586914 C3.76645508 0.0190918 4.75581055 0.02231445 5.77514648 0.02563477 C6.81606445 0.03401367 7.85698242 0.04239258 8.92944336 0.05102539 C10.49662109 0.05779297 10.49662109 0.05779297 12.09545898 0.06469727 C14.68600996 0.07652627 17.27644895 0.0930085 19.86694336 0.11352539 C16.88623252 1.69966301 15.18203266 2.28788783 11.80444336 1.98852539 C7.8600488 1.66421048 7.8600488 1.66421048 5.86694336 4.11352539 C5.53694336 4.77352539 5.20694336 5.43352539 4.86694336 6.11352539 C4.53694336 4.79352539 4.20694336 3.47352539 3.86694336 2.11352539 C2.54694336 2.11352539 1.22694336 2.11352539 -0.13305664 2.11352539 C-1.12305664 3.59852539 -1.12305664 3.59852539 -2.13305664 5.11352539 C-2.69555664 3.17602539 -2.69555664 3.17602539 -3.13305664 1.11352539 C-2.13305664 0.11352539 -2.13305664 0.11352539 0 0 Z " fill="#AFAA00" transform="translate(90.133056640625,33.886474609375)"/>
<path d="M0 0 C7.59 0 15.18 0 23 0 C23 0.33 23 0.66 23 1 C17.62374766 1.84888195 13.34629602 2.0024305 8 1 C8 2.65 8 4.3 8 6 C7.34 6 6.68 6 6 6 C5.67 5.01 5.34 4.02 5 3 C2.49552484 1.78130071 2.49552484 1.78130071 0 1 C0 0.67 0 0.34 0 0 Z " fill="#CEC700" transform="translate(23,34)"/>
<path d="M0 0 C0.99 0.66 1.98 1.32 3 2 C3.1875 4.625 3.1875 4.625 3 7 C1.35 7.33 -0.3 7.66 -2 8 C-2.6875 5.6875 -2.6875 5.6875 -3 3 C-1.5625 1.1875 -1.5625 1.1875 0 0 Z " fill="#090900" transform="translate(90,50)"/>
<path d="M0 0 C0.99 0 1.98 0 3 0 C2.67 2.31 2.34 4.62 2 7 C3.32 7 4.64 7 6 7 C6.66 5.68 7.32 4.36 8 3 C8.33 4.65 8.66 6.3 9 8 C6.17116253 9.41441874 4.12623255 9.31900332 1 9 C-0.9375 7.25 -0.9375 7.25 -2 5 C-1.75203633 2.83031791 -1.55766393 1.55766393 0 0 Z " fill="#CBC400" transform="translate(86,50)"/>
<path d="M0 0 C0 0.33 0 0.66 0 1 C-1.98 1 -3.96 1 -6 1 C-6.04898438 1.63808594 -6.09796875 2.27617188 -6.1484375 2.93359375 C-6.22320312 3.75988281 -6.29796875 4.58617187 -6.375 5.4375 C-6.47941406 6.67306641 -6.47941406 6.67306641 -6.5859375 7.93359375 C-6.72257812 8.61550781 -6.85921875 9.29742187 -7 10 C-7.99 10.495 -7.99 10.495 -9 11 C-9 7.37 -9 3.74 -9 0 C-5.93109813 -1.53445094 -3.29905734 -0.54984289 0 0 Z " fill="#EDE601" transform="translate(77,48)"/>
<path d="M0 0 C0.99 0.33 1.98 0.66 3 1 C2.67 3.31 2.34 5.62 2 8 C1.34 8 0.68 8 0 8 C0 9.65 0 11.3 0 13 C-0.33 13 -0.66 13 -1 13 C-1.07654536 8.48382401 -1.10228696 4.40914783 0 0 Z " fill="#434100" transform="translate(84,35)"/>
<path d="M0 0 C0.33 0 0.66 0 1 0 C1 2.97 1 5.94 1 9 C0.01 8.67 -0.98 8.34 -2 8 C-2.125 5.125 -2.125 5.125 -2 2 C-1.34 1.34 -0.68 0.68 0 0 Z " fill="#101000" transform="translate(126,49)"/>
<path d="M0 0 C0.66 0.99 1.32 1.98 2 3 C1.70630173 4.34262065 1.3721042 5.67696283 1 7 C1.33 7.99 1.66 8.98 2 10 C1.01 10 0.02 10 -1 10 C-1.125 2.25 -1.125 2.25 0 0 Z " fill="#5A5700" transform="translate(84,48)"/>
<path d="M0 0 C2.31 0 4.62 0 7 0 C6.67 0.99 6.34 1.98 6 3 C5.34 3 4.68 3 4 3 C3.67 3.66 3.34 4.32 3 5 C2.01 3.35 1.02 1.7 0 0 Z " fill="#C2BC00" transform="translate(63,34)"/>
<path d="M0 0 C0.99 0 1.98 0 3 0 C1.84826645 2.46800047 0.95216435 4.04783565 -1 6 C-1.625 4.125 -1.625 4.125 -2 2 C-1.34 1.34 -0.68 0.68 0 0 Z " fill="#E7DF00" transform="translate(86,50)"/>
<path d="M0 0 C0.33 0 0.66 0 1 0 C1.33 3.96 1.66 7.92 2 12 C0.68 11.67 -0.64 11.34 -2 11 C-1.67 10.67 -1.34 10.34 -1 10 C-0.76712992 8.31816052 -0.58735834 6.6287584 -0.4375 4.9375 C-0.35371094 4.01839844 -0.26992187 3.09929688 -0.18359375 2.15234375 C-0.12300781 1.44207031 -0.06242187 0.73179688 0 0 Z " fill="#E2DB00" transform="translate(109,48)"/>
</svg>
